<svg xmlns="http://www.w3.org/2000/svg" width="1522" height="223"><g fill-rule="evenodd"><path d="M369.6 69.2q1.4.1 2.9.2t2.9.3q1.5.2 2.9.5v38.1q-1.9-.7-3.9-1.2-1.9-.5-3.9-.8t-4.1-.4q-2-.1-4 0c-3.5.1-7 .6-10.4 1.5-3.4.8-6.6 2.1-9.7 3.7-3.2 1.6-6.1 3.5-8.8 5.7s-5.1 4.8-7.2 7.5v95.2h-39.8V70.7h38.3v13.5q4.3-3.6 9.3-6.4 4.9-2.9 10.3-4.8 5.3-1.9 10.9-2.9 5.7-1 11.3-1 1.5 0 3 .1M20.1 174.1q4.2 3.5 9 6.3t10 4.6q5.2 1.9 10.6 2.9 5.5.9 11 .9c10.7 0 18.9-5.2 18.9-12.6 0-22.4-71.8-14.4-71.8-62.3 0-28.5 27.5-46.3 56.9-46.3q6.6 0 13.2 1t12.9 2.9q6.4 1.9 12.4 4.7t11.6 6.5l-18.6 28.8q-3.1-2.4-6.4-4.2-3.4-1.8-7-3.1t-7.4-2-7.6-.9c-11 0-20.2 4.3-20.2 12 0 19.3 71.9 11.7 71.9 63.2 0 28.5-27.9 46-59.1 46q-8-.1-15.9-1.4t-15.4-3.8q-7.6-2.6-14.7-6.2-7.1-3.7-13.6-8.5zM269.5 146.5q0 1.5-.1 2.9-.2 1.4-.3 2.8-.2 1.5-.5 2.9H165.9c.5 4.9 1.9 9.6 4.1 14s5.3 8.3 9 11.5q5.55 4.95 12.6 7.5c4.6 1.6 9.5 2.4 14.4 2.2q5.3-.1 10.4-1.3 5.2-1.3 10-3.5t9.1-5.3q4.2-3.1 7.8-7.1l22.6 22.7c-3.8 4.3-8.1 8.1-12.7 11.5-4.6 3.3-9.6 6.2-14.8 8.5s-10.7 4-16.3 5.1c-5.6 1.2-11.3 1.7-17 1.6-10.3.5-20.6-1.2-30.2-4.9-9.7-3.7-18.4-9.3-25.7-16.6s-13-16-16.8-25.6-5.5-19.9-5-30.2c0-41.4 28.1-77.6 72.1-77.6 41 0 70.1 34.7 70.1 76.1q0 1.4-.1 2.8m-40.6-20.6c-.4-3.6-1.5-7-3.2-10.2-1.6-3.2-3.9-6-6.5-8.4-2.7-2.4-5.8-4.3-9.2-5.5-3.3-1.3-6.9-2-10.5-2-3.7 0-7.4.6-10.9 1.9-3.5 1.2-6.8 3.1-9.7 5.4q-4.35 3.6-7.2 8.4c-2.85 4.8-3.3 6.7-4 10.4z"/></g><path d="m473.1 161.5 40.6-90.8H555l-68.2 148.8h-27.5L391.1 70.7h41.3z"/><path fill-rule="evenodd" d="M588.4.8c10.3.2 19.4 6.5 23.3 16.1 3.8 9.5 1.5 20.4-5.9 27.6-7.3 7.2-18.3 9.3-27.7 5.3-9.5-3.9-15.7-13.2-15.7-23.5 0-3.4.7-6.7 2-9.9 1.3-3.1 3.2-5.9 5.6-8.3 2.5-2.4 5.3-4.2 8.5-5.5 3.1-1.2 6.5-1.9 9.9-1.8"/><path d="M568.5 70.7h39.8v148.8h-39.8z"/><g fill-rule="evenodd"><path d="M772.6 189.1c-3.7 5.3-8.1 10.2-13.1 14.5-5 4.2-10.4 7.9-16.3 10.8-5.8 2.9-12 5.1-18.4 6.4-6.4 1.4-13 2-19.5 1.7-20.9.6-41.2-7.4-56.1-22-15-14.6-23.4-34.7-23.4-55.6s8.5-40.9 23.6-55.5c15-14.5 35.3-22.4 56.2-21.8 6 0 11.9.6 17.7 1.9 5.9 1.3 11.5 3.2 16.9 5.8s10.5 5.7 15.1 9.5c4.7 3.7 9 7.9 12.7 12.6l-28.2 24.8c-1.9-2.7-4.2-5.2-6.7-7.4-2.5-2.1-5.3-4-8.3-5.6-2.9-1.5-6.1-2.7-9.3-3.5s-6.6-1.2-9.9-1.3c-5.3 0-10.6 1-15.5 3.1-4.9 2-9.4 5.1-13.1 8.9-3.8 3.8-6.7 8.3-8.6 13.2-2 5-2.9 10.3-2.8 15.6-.2 5.4.8 10.8 2.8 15.8 2 5.1 5 9.6 8.8 13.4 3.9 3.8 8.5 6.8 13.5 8.7 5.1 2 10.5 2.8 15.9 2.6 3.5-.1 7-.6 10.4-1.5s6.7-2.2 9.7-3.9c3.1-1.7 6-3.8 8.6-6.2 2.5-2.4 4.8-5.1 6.7-8zM917 195.8c-3.8 4.3-8.1 8.1-12.7 11.5-4.6 3.3-9.6 6.2-14.8 8.5-5.3 2.3-10.7 4-16.3 5.1-5.6 1.2-11.3 1.7-17 1.6-10.3.5-20.6-1.2-30.2-4.9-9.7-3.7-18.4-9.4-25.7-16.6-7.3-7.3-13-16-16.8-25.6-3.7-9.6-5.4-19.9-5-30.2 0-41.4 28.1-77.6 72.2-77.6 40.9 0 70 34.7 70 76.1q0 1.4-.1 2.8 0 1.4-.1 2.9-.1 1.4-.3 2.8l-.4 2.8H817c.5 4.9 1.9 9.7 4.1 14 2.2 4.4 5.3 8.3 9 11.6 3.6 3.2 7.9 5.8 12.5 7.4 4.7 1.7 9.6 2.5 14.5 2.3q5.3-.2 10.4-1.4 5.2-1.2 10-3.4t9.1-5.3q4.2-3.2 7.8-7.1zm-37-69.9c-.4-3.6-1.5-7-3.2-10.2-1.6-3.2-3.9-6-6.5-8.4-2.7-2.4-5.8-4.3-9.2-5.6-3.3-1.2-6.9-1.9-10.5-1.9-3.7 0-7.4.6-10.9 1.9-3.5 1.2-6.8 3-9.7 5.4s-5.3 5.2-7.2 8.4-3.3 6.7-4 10.4zM936.5 219.5V70.7h38.2v11.9q4.4-3.6 9.3-6.4 5-2.8 10.3-4.8 5.4-1.9 11-2.8 5.6-1 11.3-1c4.9 0 9.7.5 14.5 1.6 4.8 1 9.4 2.6 13.8 4.6 4.5 2.1 8.7 4.6 12.5 7.6 3.9 3 7.4 6.4 10.6 10.1q4.2 5.6 7.4 11.8 3.1 6.2 5.1 12.9t2.7 13.6q.6 7 .1 13.9v75.8h-39.8v-78.9q.4-3.8 0-7.5-.3-3.8-1.5-7.4-1.1-3.6-3-6.9t-4.4-6.1q-2.2-2.1-4.8-3.7t-5.5-2.7-5.9-1.5q-3-.5-6.1-.4c-3.5.1-6.9.6-10.3 1.4-3.4.9-6.7 2.1-9.8 3.7s-6 3.5-8.7 5.8c-2.7 2.2-5.1 4.7-7.3 7.5v96.7z"/><path fill="#62d84e" d="M1234.1 82.9c14.3 9.8 25.3 23.7 31.7 39.8 6.3 16.2 7.7 33.8 4 50.7-3.8 16.9-12.5 32.4-25.1 44.3-1.5 1.4-3.2 2.6-5.1 3.4-1.8.8-3.9 1.3-5.9 1.4s-4.1-.1-6.1-.7c-1.9-.6-3.8-1.6-5.4-2.8-5.3-4-11.2-7.1-17.5-9.1-6.4-2.1-13-3.2-19.6-3.2s-13.2 1.1-19.5 3.2c-6.3 2-12.3 5.1-17.6 9.1-1.6 1.2-3.4 2.2-5.4 2.8-1.9.6-4 .9-6 .8-2-.2-4-.6-5.9-1.4s-3.6-2-5-3.4c-12.7-11.9-21.5-27.4-25.3-44.5-3.7-17-2.3-34.7 4.2-50.9s17.6-30.1 32.1-39.9c14.4-9.7 31.5-14.9 48.9-14.9 17.4.1 34.2 5.5 48.5 15.3M1201.9 195c5.3-2.1 10.1-5.3 14.2-9.3 4-4.1 7.2-8.9 9.4-14.2 2.1-5.4 3.1-11.1 2.9-16.8 0-11.5-4.5-22.5-12.6-30.6-8.2-8.2-19.2-12.7-30.7-12.7s-22.5 4.5-30.6 12.7c-8.2 8.1-12.7 19.1-12.7 30.6-.2 5.7.8 11.4 3 16.8 2.1 5.3 5.3 10.1 9.3 14.2 4.1 4 8.9 7.2 14.2 9.3 5.4 2.1 11.1 3.2 16.8 3 5.7.2 11.4-.9 16.8-3"/></g><path d="M1350.4 219.5h-29.6l-59-148.8h39.7l32.4 85 31.7-85h33.2l31.4 85 32.7-85h39.7l-59.1 148.8h-29.6l-31.7-84.8z"/><path fill-rule="evenodd" d="M1503 202.6h-3.3v6.3h-2.9v-17.2h7q1.1 0 2.1.4t1.8 1.2 1.2 1.8.4 2.1q0 .9-.2 1.6-.3.8-.7 1.5-.5.6-1.1 1.1-.6.6-1.4.9l3.9 6.7h-3.1zm-3.3-2.6h4.1c.7 0 1.5-.3 2-.8q.9-.9.9-2.1c0-.7-.3-1.5-.9-2-.5-.6-1.3-.9-2-.9h-4.1z"/><path fill-rule="evenodd" d="M1509.7 183.5c2.3 1 4.3 2.3 6.1 4 1.7 1.8 3.1 3.8 4 6.1.9 2.2 1.4 4.6 1.4 7.1 0 7.5-4.5 14.2-11.5 17.1-6.9 2.9-14.9 1.3-20.2-4s-6.9-13.3-4-20.2c2.8-7 9.6-11.5 17.1-11.5 2.5 0 4.9.5 7.1 1.4m-13.2 2.4c-1.9.8-3.7 1.9-5.2 3.4s-2.6 3.3-3.4 5.2c-.8 2-1.3 4-1.3 6.1 0 6.5 3.9 12.3 9.9 14.8s12.9 1.1 17.5-3.5c4.5-4.5 5.9-11.4 3.4-17.4s-8.3-9.9-14.8-9.9c-2.1 0-4.2.5-6.1 1.3"/></svg>