<svg width="520" height="450" viewBox="0 0 520 450" xmlns="http://www.w3.org/2000/svg">
  <rect x="6.5" y="4.5" width="4.9" height="4.9" rx="1.8" fill="#62d99b" opacity="0.17" />
  <rect x="27.6" y="8.1" width="6.2" height="6.2" rx="2.3" fill="#62d99b" opacity="0.17" />
  <rect x="48.6" y="5.0" width="5.8" height="5.8" rx="2.6" fill="#62d99b" opacity="0.27" />
  <rect x="68.7" y="5.1" width="4.8" height="4.8" rx="2.0" fill="#8dff6a" opacity="0.33" />
  <rect x="108.0" y="6.1" width="4.0" height="4.0" rx="1.5" fill="#8dff6a" opacity="0.39" />
  <rect x="169.7" y="7.7" width="5.1" height="5.1" rx="1.4" fill="#8dff6a" opacity="0.40" />
  <rect x="189.9" y="4.9" width="2.9" height="2.9" rx="1.2" fill="#62d99b" opacity="0.48" />
  <rect x="210.9" y="4.2" width="3.4" height="3.4" rx="1.0" fill="#8dff6a" opacity="0.42" />
  <rect x="230.2" y="6.5" width="6.3" height="6.3" rx="2.5" fill="#62d99b" opacity="0.48" />
  <rect x="252.6" y="7.1" width="3.8" height="3.8" rx="1.4" fill="#8dff6a" opacity="0.49" />
  <rect x="273.1" y="5.2" width="5.8" height="5.8" rx="2.4" fill="#8dff6a" opacity="0.42" />
  <rect x="312.8" y="4.6" width="4.8" height="4.8" rx="2.0" fill="#8dff6a" opacity="0.54" />
  <rect x="332.9" y="6.7" width="6.7" height="6.7" rx="2.5" fill="#8dff6a" opacity="0.32" />
  <rect x="372.7" y="5.4" width="5.4" height="5.4" rx="1.9" fill="#62d99b" opacity="0.55" />
  <rect x="395.6" y="5.4" width="5.0" height="5.0" rx="2.2" fill="#8dff6a" opacity="0.54" />
  <rect x="415.7" y="6.1" width="3.3" height="3.3" rx="1.1" fill="#8dff6a" opacity="0.25" />
  <rect x="435.5" y="4.4" width="3.6" height="3.6" rx="1.4" fill="#8dff6a" opacity="0.31" />
  <rect x="457.2" y="4.9" width="6.1" height="6.1" rx="2.1" fill="#8dff6a" opacity="0.36" />
  <rect x="495.2" y="5.4" width="6.6" height="6.6" rx="2.3" fill="#8dff6a" opacity="0.48" />
  <rect x="7.9" y="25.0" width="6.0" height="6.0" rx="2.4" fill="#8dff6a" opacity="0.18" />
  <rect x="88.9" y="24.4" width="4.4" height="4.4" rx="1.3" fill="#8dff6a" opacity="0.42" />
  <rect x="106.9" y="24.1" width="3.1" height="3.1" rx="1.3" fill="#62d99b" opacity="0.23" />
  <rect x="129.3" y="25.6" width="4.3" height="4.3" rx="1.9" fill="#8dff6a" opacity="0.45" />
  <rect x="233.1" y="24.6" width="5.0" height="5.0" rx="2.2" fill="#8dff6a" opacity="0.47" />
  <rect x="290.5" y="25.8" width="3.0" height="3.0" rx="0.9" fill="#8dff6a" opacity="0.46" />
  <rect x="313.4" y="26.8" width="3.7" height="3.7" rx="1.5" fill="#8dff6a" opacity="0.26" />
  <rect x="335.2" y="27.9" width="4.5" height="4.5" rx="1.8" fill="#8dff6a" opacity="0.43" />
  <rect x="354.1" y="26.9" width="4.4" height="4.4" rx="1.5" fill="#62d99b" opacity="0.40" />
  <rect x="372.4" y="25.7" width="6.5" height="6.5" rx="2.5" fill="#8dff6a" opacity="0.40" />
  <rect x="394.6" y="25.9" width="2.9" height="2.9" rx="1.2" fill="#8dff6a" opacity="0.54" />
  <rect x="413.7" y="27.1" width="3.4" height="3.4" rx="1.1" fill="#8dff6a" opacity="0.26" />
  <rect x="435.4" y="25.1" width="3.4" height="3.4" rx="1.1" fill="#8dff6a" opacity="0.54" />
  <rect x="456.7" y="25.1" width="3.1" height="3.1" rx="1.2" fill="#62d99b" opacity="0.33" />
  <rect x="29.1" y="44.4" width="6.6" height="6.6" rx="2.4" fill="#8dff6a" opacity="0.24" />
  <rect x="47.8" y="45.8" width="3.6" height="3.6" rx="1.6" fill="#8dff6a" opacity="0.37" />
  <rect x="89.5" y="46.7" width="4.6" height="4.6" rx="1.6" fill="#8dff6a" opacity="0.41" />
  <rect x="170.3" y="47.2" width="6.5" height="6.5" rx="2.8" fill="#8dff6a" opacity="0.48" />
  <rect x="229.5" y="45.0" width="4.9" height="4.9" rx="1.9" fill="#8dff6a" opacity="0.22" />
  <rect x="252.4" y="44.9" width="6.1" height="6.1" rx="2.5" fill="#62d99b" opacity="0.30" />
  <rect x="271.1" y="47.6" width="6.5" height="6.5" rx="2.0" fill="#8dff6a" opacity="0.27" />
  <rect x="311.8" y="47.7" width="4.4" height="4.4" rx="1.7" fill="#8dff6a" opacity="0.27" />
  <rect x="332.6" y="47.1" width="6.4" height="6.4" rx="2.9" fill="#8dff6a" opacity="0.30" />
  <rect x="374.9" y="45.0" width="4.5" height="4.5" rx="1.5" fill="#8dff6a" opacity="0.31" />
  <rect x="392.8" y="46.1" width="4.1" height="4.1" rx="1.8" fill="#62d99b" opacity="0.57" />
  <rect x="413.6" y="46.9" width="5.9" height="5.9" rx="2.4" fill="#62d99b" opacity="0.37" />
  <rect x="435.1" y="44.4" width="4.8" height="4.8" rx="1.4" fill="#8dff6a" opacity="0.43" />
  <rect x="457.7" y="46.7" width="6.2" height="6.2" rx="2.5" fill="#8dff6a" opacity="0.52" />
  <rect x="475.2" y="45.5" width="6.1" height="6.1" rx="2.8" fill="#8dff6a" opacity="0.35" />
  <rect x="7.0" y="67.2" width="4.8" height="4.8" rx="2.0" fill="#8dff6a" opacity="0.20" />
  <rect x="26.8" y="67.5" width="6.0" height="6.0" rx="1.7" fill="#8dff6a" opacity="0.26" />
  <rect x="48.7" y="68.3" width="6.5" height="6.5" rx="2.9" fill="#8dff6a" opacity="0.30" />
  <rect x="67.6" y="67.4" width="4.8" height="4.8" rx="2.1" fill="#8dff6a" opacity="0.41" />
  <rect x="87.4" y="68.3" width="3.8" height="3.8" rx="1.5" fill="#8dff6a" opacity="0.36" />
  <rect x="150.5" y="67.1" width="5.6" height="5.6" rx="2.1" fill="#8dff6a" opacity="0.46" />
  <rect x="169.0" y="67.2" width="6.2" height="6.2" rx="2.0" fill="#62d99b" opacity="0.35" />
  <rect x="191.3" y="66.0" width="6.4" height="6.4" rx="2.4" fill="#8dff6a" opacity="0.34" />
  <rect x="212.3" y="65.6" width="6.1" height="6.1" rx="2.4" fill="#8dff6a" opacity="0.29" />
  <rect x="314.6" y="66.5" width="3.4" height="3.4" rx="1.2" fill="#8dff6a" opacity="0.55" />
  <rect x="333.4" y="67.0" width="5.9" height="5.9" rx="1.7" fill="#62d99b" opacity="0.50" />
  <rect x="435.6" y="68.5" width="6.6" height="6.6" rx="1.9" fill="#8dff6a" opacity="0.42" />
  <rect x="453.7" y="67.2" width="6.4" height="6.4" rx="2.7" fill="#8dff6a" opacity="0.29" />
  <rect x="475.3" y="68.6" width="5.8" height="5.8" rx="2.6" fill="#8dff6a" opacity="0.47" />
  <rect x="496.2" y="64.9" width="4.5" height="4.5" rx="2.0" fill="#8dff6a" opacity="0.54" />
  <rect x="8.9" y="86.6" width="3.8" height="3.8" rx="1.5" fill="#8dff6a" opacity="0.31" />
  <rect x="107.6" y="87.6" width="4.8" height="4.8" rx="1.5" fill="#8dff6a" opacity="0.44" />
  <rect x="150.6" y="87.8" width="5.5" height="5.5" rx="2.2" fill="#8dff6a" opacity="0.33" />
  <rect x="189.9" y="87.2" width="3.8" height="3.8" rx="1.4" fill="#8dff6a" opacity="0.45" />
  <rect x="212.3" y="87.2" width="5.1" height="5.1" rx="2.1" fill="#8dff6a" opacity="0.24" />
  <rect x="249.7" y="87.5" width="4.8" height="4.8" rx="1.4" fill="#62d99b" opacity="0.52" />
  <rect x="271.5" y="85.0" width="5.3" height="5.3" rx="1.6" fill="#62d99b" opacity="0.52" />
  <rect x="292.5" y="85.0" width="6.0" height="6.0" rx="1.7" fill="#62d99b" opacity="0.54" />
  <rect x="311.1" y="88.2" width="5.4" height="5.4" rx="2.0" fill="#8dff6a" opacity="0.24" />
  <rect x="332.5" y="86.9" width="4.9" height="4.9" rx="2.0" fill="#8dff6a" opacity="0.30" />
  <rect x="354.0" y="85.8" width="4.4" height="4.4" rx="1.8" fill="#8dff6a" opacity="0.53" />
  <rect x="376.1" y="88.5" width="3.9" height="3.9" rx="1.1" fill="#8dff6a" opacity="0.49" />
  <rect x="396.5" y="86.8" width="6.1" height="6.1" rx="2.5" fill="#8dff6a" opacity="0.35" />
  <rect x="413.5" y="88.1" width="4.5" height="4.5" rx="1.7" fill="#62d99b" opacity="0.47" />
  <rect x="433.9" y="86.2" width="4.3" height="4.3" rx="1.6" fill="#8dff6a" opacity="0.34" />
  <rect x="454.4" y="86.8" width="5.0" height="5.0" rx="1.7" fill="#8dff6a" opacity="0.47" />
  <rect x="474.7" y="85.4" width="4.0" height="4.0" rx="1.8" fill="#8dff6a" opacity="0.35" />
  <rect x="497.1" y="87.1" width="5.4" height="5.4" rx="1.7" fill="#8dff6a" opacity="0.26" />
  <rect x="8.3" y="107.3" width="6.5" height="6.5" rx="2.0" fill="#8dff6a" opacity="0.30" />
  <rect x="28.0" y="108.7" width="4.8" height="4.8" rx="1.5" fill="#8dff6a" opacity="0.30" />
  <rect x="45.6" y="106.1" width="3.1" height="3.1" rx="1.2" fill="#8dff6a" opacity="0.26" />
  <rect x="109.4" y="108.4" width="6.2" height="6.2" rx="2.7" fill="#8dff6a" opacity="0.31" />
  <rect x="129.8" y="105.5" width="5.6" height="5.6" rx="2.5" fill="#8dff6a" opacity="0.23" />
  <rect x="170.9" y="105.0" width="4.7" height="4.7" rx="2.0" fill="#8dff6a" opacity="0.36" />
  <rect x="188.9" y="107.4" width="3.1" height="3.1" rx="1.1" fill="#8dff6a" opacity="0.40" />
  <rect x="211.5" y="106.3" width="6.5" height="6.5" rx="2.5" fill="#8dff6a" opacity="0.35" />
  <rect x="229.5" y="107.6" width="4.9" height="4.9" rx="2.1" fill="#8dff6a" opacity="0.52" />
  <rect x="251.1" y="108.2" width="2.8" height="2.8" rx="1.1" fill="#8dff6a" opacity="0.36" />
  <rect x="270.1" y="108.5" width="5.0" height="5.0" rx="1.8" fill="#8dff6a" opacity="0.38" />
  <rect x="293.7" y="105.0" width="4.6" height="4.6" rx="1.6" fill="#8dff6a" opacity="0.41" />
  <rect x="311.4" y="105.8" width="5.7" height="5.7" rx="2.4" fill="#8dff6a" opacity="0.53" />
  <rect x="352.5" y="109.1" width="6.4" height="6.4" rx="2.1" fill="#62d99b" opacity="0.36" />
  <rect x="373.9" y="105.0" width="5.2" height="5.2" rx="1.5" fill="#8dff6a" opacity="0.32" />
  <rect x="395.3" y="105.1" width="2.9" height="2.9" rx="1.1" fill="#8dff6a" opacity="0.58" />
  <rect x="475.1" y="108.1" width="3.7" height="3.7" rx="1.2" fill="#8dff6a" opacity="0.34" />
  <rect x="110.9" y="127.6" width="4.0" height="4.0" rx="1.5" fill="#8dff6a" opacity="0.32" />
  <rect x="129.1" y="125.1" width="6.4" height="6.4" rx="2.6" fill="#8dff6a" opacity="0.29" />
  <rect x="190.6" y="126.2" width="6.7" height="6.7" rx="2.8" fill="#8dff6a" opacity="0.40" />
  <rect x="212.1" y="128.2" width="5.0" height="5.0" rx="1.6" fill="#8dff6a" opacity="0.22" />
  <rect x="270.4" y="127.0" width="5.7" height="5.7" rx="2.5" fill="#8dff6a" opacity="0.56" />
  <rect x="292.0" y="126.1" width="6.7" height="6.7" rx="2.6" fill="#8dff6a" opacity="0.54" />
  <rect x="311.2" y="128.7" width="5.1" height="5.1" rx="1.7" fill="#8dff6a" opacity="0.40" />
  <rect x="334.3" y="128.5" width="6.5" height="6.5" rx="2.3" fill="#8dff6a" opacity="0.65" />
  <rect x="393.7" y="125.8" width="6.2" height="6.2" rx="2.6" fill="#8dff6a" opacity="0.62" />
  <rect x="414.9" y="126.4" width="3.6" height="3.6" rx="1.5" fill="#8dff6a" opacity="0.55" />
  <rect x="435.1" y="126.7" width="5.3" height="5.3" rx="2.1" fill="#62d99b" opacity="0.33" />
  <rect x="455.6" y="127.5" width="6.0" height="6.0" rx="2.0" fill="#8dff6a" opacity="0.59" />
  <rect x="496.9" y="126.9" width="5.4" height="5.4" rx="2.4" fill="#62d99b" opacity="0.35" />
  <rect x="8.6" y="146.9" width="5.0" height="5.0" rx="1.5" fill="#8dff6a" opacity="0.37" />
  <rect x="48.9" y="148.7" width="6.7" height="6.7" rx="2.6" fill="#62d99b" opacity="0.37" />
  <rect x="86.9" y="147.8" width="6.4" height="6.4" rx="2.4" fill="#8dff6a" opacity="0.27" />
  <rect x="147.7" y="148.0" width="6.0" height="6.0" rx="2.2" fill="#8dff6a" opacity="0.29" />
  <rect x="189.2" y="146.9" width="5.2" height="5.2" rx="1.8" fill="#8dff6a" opacity="0.36" />
  <rect x="232.2" y="145.9" width="6.4" height="6.4" rx="2.6" fill="#8dff6a" opacity="0.42" />
  <rect x="249.7" y="145.5" width="6.5" height="6.5" rx="2.0" fill="#62d99b" opacity="0.49" />
  <rect x="271.9" y="148.6" width="4.1" height="4.1" rx="1.8" fill="#8dff6a" opacity="0.49" />
  <rect x="290.6" y="147.3" width="6.2" height="6.2" rx="2.5" fill="#62d99b" opacity="0.54" />
  <rect x="312.0" y="147.9" width="3.9" height="3.9" rx="1.7" fill="#62d99b" opacity="0.37" />
  <rect x="331.2" y="147.2" width="5.2" height="5.2" rx="1.9" fill="#62d99b" opacity="0.50" />
  <rect x="355.4" y="146.7" width="5.7" height="5.7" rx="2.2" fill="#8dff6a" opacity="0.46" />
  <rect x="374.4" y="148.4" width="4.6" height="4.6" rx="2.1" fill="#8dff6a" opacity="0.48" />
  <rect x="392.8" y="146.1" width="5.3" height="5.3" rx="1.7" fill="#8dff6a" opacity="0.55" />
  <rect x="414.8" y="145.3" width="6.0" height="6.0" rx="2.1" fill="#62d99b" opacity="0.55" />
  <rect x="495.2" y="147.4" width="3.5" height="3.5" rx="1.6" fill="#8dff6a" opacity="0.52" />
  <rect x="8.1" y="165.8" width="6.1" height="6.1" rx="1.9" fill="#8dff6a" opacity="0.35" />
  <rect x="27.5" y="166.0" width="5.5" height="5.5" rx="2.2" fill="#8dff6a" opacity="0.19" />
  <rect x="68.3" y="165.7" width="3.4" height="3.4" rx="1.3" fill="#62d99b" opacity="0.28" />
  <rect x="127.8" y="167.5" width="2.8" height="2.8" rx="1.3" fill="#8dff6a" opacity="0.29" />
  <rect x="150.4" y="169.2" width="3.2" height="3.2" rx="1.3" fill="#8dff6a" opacity="0.39" />
  <rect x="168.8" y="165.7" width="5.5" height="5.5" rx="2.3" fill="#62d99b" opacity="0.45" />
  <rect x="212.6" y="167.6" width="4.1" height="4.1" rx="1.5" fill="#8dff6a" opacity="0.49" />
  <rect x="232.6" y="168.5" width="4.6" height="4.6" rx="2.1" fill="#8dff6a" opacity="0.24" />
  <rect x="252.9" y="169.2" width="4.7" height="4.7" rx="1.8" fill="#8dff6a" opacity="0.50" />
  <rect x="271.6" y="168.5" width="3.7" height="3.7" rx="1.3" fill="#8dff6a" opacity="0.42" />
  <rect x="312.4" y="168.6" width="4.6" height="4.6" rx="1.4" fill="#62d99b" opacity="0.46" />
  <rect x="354.3" y="167.0" width="4.7" height="4.7" rx="1.5" fill="#62d99b" opacity="0.58" />
  <rect x="374.6" y="166.0" width="5.3" height="5.3" rx="2.3" fill="#8dff6a" opacity="0.40" />
  <rect x="395.6" y="168.9" width="6.3" height="6.3" rx="2.3" fill="#8dff6a" opacity="0.26" />
  <rect x="417.2" y="166.2" width="4.8" height="4.8" rx="1.9" fill="#62d99b" opacity="0.58" />
  <rect x="437.4" y="167.9" width="4.4" height="4.4" rx="2.0" fill="#8dff6a" opacity="0.33" />
  <rect x="475.1" y="165.7" width="6.2" height="6.2" rx="1.9" fill="#8dff6a" opacity="0.26" />
  <rect x="496.0" y="169.5" width="3.9" height="3.9" rx="1.5" fill="#8dff6a" opacity="0.24" />
  <rect x="8.8" y="188.0" width="6.1" height="6.1" rx="1.7" fill="#62d99b" opacity="0.25" />
  <rect x="89.0" y="186.2" width="6.3" height="6.3" rx="1.8" fill="#8dff6a" opacity="0.44" />
  <rect x="108.1" y="187.7" width="4.4" height="4.4" rx="1.6" fill="#62d99b" opacity="0.44" />
  <rect x="128.0" y="186.9" width="3.9" height="3.9" rx="1.7" fill="#62d99b" opacity="0.38" />
  <rect x="151.3" y="189.2" width="6.1" height="6.1" rx="2.6" fill="#8dff6a" opacity="0.22" />
  <rect x="170.0" y="189.6" width="2.9" height="2.9" rx="1.0" fill="#8dff6a" opacity="0.48" />
  <rect x="189.6" y="187.3" width="5.4" height="5.4" rx="2.1" fill="#8dff6a" opacity="0.42" />
  <rect x="271.4" y="187.0" width="3.1" height="3.1" rx="1.3" fill="#62d99b" opacity="0.54" />
  <rect x="293.7" y="186.6" width="3.1" height="3.1" rx="1.1" fill="#8dff6a" opacity="0.57" />
  <rect x="311.3" y="188.1" width="4.9" height="4.9" rx="1.5" fill="#8dff6a" opacity="0.58" />
  <rect x="332.6" y="186.5" width="2.9" height="2.9" rx="0.9" fill="#8dff6a" opacity="0.30" />
  <rect x="355.3" y="187.5" width="5.6" height="5.6" rx="1.8" fill="#8dff6a" opacity="0.42" />
  <rect x="374.3" y="186.6" width="3.4" height="3.4" rx="1.3" fill="#8dff6a" opacity="0.41" />
  <rect x="393.3" y="189.0" width="4.5" height="4.5" rx="1.3" fill="#62d99b" opacity="0.56" />
  <rect x="415.6" y="187.3" width="5.4" height="5.4" rx="1.8" fill="#62d99b" opacity="0.61" />
  <rect x="454.2" y="188.1" width="4.5" height="4.5" rx="1.8" fill="#8dff6a" opacity="0.41" />
  <rect x="474.9" y="189.0" width="2.8" height="2.8" rx="0.9" fill="#62d99b" opacity="0.35" />
  <rect x="26.7" y="206.4" width="4.1" height="4.1" rx="1.3" fill="#8dff6a" opacity="0.38" />
  <rect x="46.4" y="205.9" width="4.3" height="4.3" rx="1.8" fill="#8dff6a" opacity="0.31" />
  <rect x="69.5" y="208.8" width="5.4" height="5.4" rx="1.6" fill="#8dff6a" opacity="0.22" />
  <rect x="87.3" y="210.1" width="4.5" height="4.5" rx="1.6" fill="#8dff6a" opacity="0.33" />
  <rect x="110.7" y="208.2" width="6.5" height="6.5" rx="1.9" fill="#8dff6a" opacity="0.29" />
  <rect x="127.7" y="206.3" width="6.3" height="6.3" rx="1.9" fill="#8dff6a" opacity="0.22" />
  <rect x="171.2" y="209.8" width="6.6" height="6.6" rx="2.4" fill="#8dff6a" opacity="0.38" />
  <rect x="189.3" y="207.0" width="3.3" height="3.3" rx="1.2" fill="#8dff6a" opacity="0.34" />
  <rect x="208.9" y="207.8" width="3.5" height="3.5" rx="1.5" fill="#62d99b" opacity="0.49" />
  <rect x="232.7" y="209.2" width="2.9" height="2.9" rx="1.2" fill="#62d99b" opacity="0.29" />
  <rect x="312.3" y="206.5" width="2.9" height="2.9" rx="0.9" fill="#62d99b" opacity="0.46" />
  <rect x="334.2" y="207.4" width="5.6" height="5.6" rx="2.6" fill="#62d99b" opacity="0.27" />
  <rect x="353.4" y="208.0" width="6.3" height="6.3" rx="2.0" fill="#8dff6a" opacity="0.30" />
  <rect x="375.6" y="207.0" width="4.1" height="4.1" rx="1.3" fill="#8dff6a" opacity="0.55" />
  <rect x="413.3" y="206.6" width="3.6" height="3.6" rx="1.4" fill="#8dff6a" opacity="0.30" />
  <rect x="435.8" y="210.1" width="4.6" height="4.6" rx="1.9" fill="#62d99b" opacity="0.57" />
  <rect x="454.0" y="208.2" width="5.6" height="5.6" rx="1.6" fill="#8dff6a" opacity="0.36" />
  <rect x="474.3" y="207.9" width="5.0" height="5.0" rx="2.0" fill="#8dff6a" opacity="0.40" />
  <rect x="498.0" y="206.2" width="3.3" height="3.3" rx="1.4" fill="#8dff6a" opacity="0.24" />
  <rect x="8.4" y="228.0" width="6.7" height="6.7" rx="2.5" fill="#8dff6a" opacity="0.28" />
  <rect x="46.1" y="226.6" width="4.3" height="4.3" rx="1.7" fill="#8dff6a" opacity="0.19" />
  <rect x="109.2" y="227.0" width="4.9" height="4.9" rx="1.8" fill="#8dff6a" opacity="0.23" />
  <rect x="151.6" y="226.2" width="4.7" height="4.7" rx="1.9" fill="#8dff6a" opacity="0.35" />
  <rect x="188.5" y="229.6" width="4.6" height="4.6" rx="2.0" fill="#8dff6a" opacity="0.22" />
  <rect x="231.0" y="227.1" width="4.6" height="4.6" rx="1.4" fill="#8dff6a" opacity="0.46" />
  <rect x="252.7" y="228.8" width="5.3" height="5.3" rx="1.5" fill="#8dff6a" opacity="0.42" />
  <rect x="315.1" y="229.1" width="6.3" height="6.3" rx="1.9" fill="#8dff6a" opacity="0.54" />
  <rect x="331.5" y="229.2" width="4.9" height="4.9" rx="1.9" fill="#8dff6a" opacity="0.43" />
  <rect x="353.0" y="227.8" width="3.8" height="3.8" rx="1.3" fill="#8dff6a" opacity="0.26" />
  <rect x="374.2" y="229.3" width="2.9" height="2.9" rx="1.0" fill="#62d99b" opacity="0.58" />
  <rect x="393.8" y="228.9" width="2.9" height="2.9" rx="1.0" fill="#8dff6a" opacity="0.36" />
  <rect x="415.6" y="227.6" width="6.6" height="6.6" rx="2.3" fill="#8dff6a" opacity="0.44" />
  <rect x="454.8" y="226.6" width="5.3" height="5.3" rx="1.8" fill="#62d99b" opacity="0.24" />
  <rect x="477.2" y="229.8" width="2.9" height="2.9" rx="1.0" fill="#8dff6a" opacity="0.25" />
  <rect x="28.7" y="249.2" width="5.3" height="5.3" rx="2.4" fill="#8dff6a" opacity="0.26" />
  <rect x="48.9" y="249.3" width="3.5" height="3.5" rx="1.3" fill="#8dff6a" opacity="0.36" />
  <rect x="86.8" y="249.0" width="3.2" height="3.2" rx="1.1" fill="#8dff6a" opacity="0.34" />
  <rect x="129.8" y="250.2" width="4.7" height="4.7" rx="2.1" fill="#8dff6a" opacity="0.43" />
  <rect x="151.2" y="248.7" width="3.1" height="3.1" rx="1.2" fill="#8dff6a" opacity="0.32" />
  <rect x="191.7" y="249.4" width="5.0" height="5.0" rx="2.1" fill="#8dff6a" opacity="0.40" />
  <rect x="210.8" y="246.9" width="5.1" height="5.1" rx="1.5" fill="#8dff6a" opacity="0.40" />
  <rect x="251.2" y="249.3" width="5.6" height="5.6" rx="1.7" fill="#8dff6a" opacity="0.51" />
  <rect x="273.2" y="247.0" width="6.0" height="6.0" rx="2.6" fill="#8dff6a" opacity="0.29" />
  <rect x="352.0" y="248.1" width="2.9" height="2.9" rx="1.1" fill="#8dff6a" opacity="0.53" />
  <rect x="375.7" y="249.6" width="6.0" height="6.0" rx="2.2" fill="#8dff6a" opacity="0.57" />
  <rect x="396.4" y="249.9" width="6.7" height="6.7" rx="2.0" fill="#8dff6a" opacity="0.58" />
  <rect x="413.2" y="248.0" width="4.3" height="4.3" rx="1.4" fill="#8dff6a" opacity="0.25" />
  <rect x="434.0" y="249.5" width="4.2" height="4.2" rx="1.6" fill="#62d99b" opacity="0.23" />
  <rect x="454.5" y="250.1" width="6.4" height="6.4" rx="2.3" fill="#8dff6a" opacity="0.51" />
  <rect x="476.6" y="247.4" width="3.7" height="3.7" rx="1.1" fill="#8dff6a" opacity="0.29" />
  <rect x="496.3" y="248.5" width="4.3" height="4.3" rx="1.8" fill="#62d99b" opacity="0.27" />
  <rect x="68.6" y="268.1" width="5.8" height="5.8" rx="2.3" fill="#8dff6a" opacity="0.33" />
  <rect x="107.8" y="267.9" width="5.2" height="5.2" rx="1.8" fill="#8dff6a" opacity="0.25" />
  <rect x="129.8" y="266.8" width="3.9" height="3.9" rx="1.3" fill="#8dff6a" opacity="0.24" />
  <rect x="188.6" y="269.5" width="3.5" height="3.5" rx="1.4" fill="#8dff6a" opacity="0.39" />
  <rect x="212.3" y="268.0" width="4.6" height="4.6" rx="1.5" fill="#8dff6a" opacity="0.49" />
  <rect x="252.8" y="269.6" width="6.7" height="6.7" rx="2.5" fill="#8dff6a" opacity="0.22" />
  <rect x="271.4" y="268.3" width="5.5" height="5.5" rx="2.1" fill="#62d99b" opacity="0.38" />
  <rect x="291.4" y="267.5" width="3.7" height="3.7" rx="1.4" fill="#62d99b" opacity="0.24" />
  <rect x="313.3" y="267.5" width="4.8" height="4.8" rx="1.5" fill="#8dff6a" opacity="0.26" />
  <rect x="355.8" y="266.7" width="3.7" height="3.7" rx="1.4" fill="#8dff6a" opacity="0.56" />
  <rect x="393.1" y="267.8" width="6.5" height="6.5" rx="2.4" fill="#8dff6a" opacity="0.48" />
  <rect x="435.3" y="270.0" width="4.2" height="4.2" rx="1.8" fill="#8dff6a" opacity="0.31" />
  <rect x="496.4" y="266.8" width="3.0" height="3.0" rx="1.3" fill="#8dff6a" opacity="0.45" />
  <rect x="7.9" y="287.9" width="4.0" height="4.0" rx="1.4" fill="#8dff6a" opacity="0.25" />
  <rect x="88.0" y="290.4" width="3.5" height="3.5" rx="1.3" fill="#8dff6a" opacity="0.30" />
  <rect x="149.9" y="288.1" width="5.9" height="5.9" rx="2.1" fill="#8dff6a" opacity="0.42" />
  <rect x="188.7" y="290.1" width="6.3" height="6.3" rx="2.2" fill="#8dff6a" opacity="0.26" />
  <rect x="211.0" y="289.1" width="4.5" height="4.5" rx="1.7" fill="#8dff6a" opacity="0.46" />
  <rect x="231.4" y="287.9" width="3.7" height="3.7" rx="1.6" fill="#62d99b" opacity="0.49" />
  <rect x="253.5" y="288.1" width="5.7" height="5.7" rx="2.3" fill="#62d99b" opacity="0.41" />
  <rect x="274.0" y="289.5" width="5.2" height="5.2" rx="1.9" fill="#8dff6a" opacity="0.39" />
  <rect x="312.4" y="290.2" width="3.8" height="3.8" rx="1.5" fill="#8dff6a" opacity="0.45" />
  <rect x="334.1" y="287.4" width="4.5" height="4.5" rx="1.5" fill="#62d99b" opacity="0.44" />
  <rect x="355.8" y="290.1" width="6.3" height="6.3" rx="2.2" fill="#8dff6a" opacity="0.53" />
  <rect x="393.3" y="289.1" width="6.2" height="6.2" rx="1.8" fill="#8dff6a" opacity="0.52" />
  <rect x="416.3" y="287.8" width="2.9" height="2.9" rx="0.9" fill="#8dff6a" opacity="0.28" />
  <rect x="436.1" y="290.6" width="3.1" height="3.1" rx="1.3" fill="#8dff6a" opacity="0.38" />
  <rect x="457.6" y="287.1" width="3.9" height="3.9" rx="1.6" fill="#62d99b" opacity="0.40" />
  <rect x="497.0" y="288.0" width="3.0" height="3.0" rx="0.9" fill="#8dff6a" opacity="0.50" />
  <rect x="7.7" y="310.3" width="2.8" height="2.8" rx="0.9" fill="#8dff6a" opacity="0.17" />
  <rect x="69.6" y="309.5" width="5.3" height="5.3" rx="2.0" fill="#8dff6a" opacity="0.24" />
  <rect x="87.0" y="307.0" width="3.8" height="3.8" rx="1.2" fill="#8dff6a" opacity="0.39" />
  <rect x="151.3" y="307.8" width="3.1" height="3.1" rx="1.2" fill="#8dff6a" opacity="0.38" />
  <rect x="169.3" y="310.5" width="3.7" height="3.7" rx="1.7" fill="#62d99b" opacity="0.20" />
  <rect x="211.9" y="310.4" width="4.4" height="4.4" rx="1.8" fill="#8dff6a" opacity="0.21" />
  <rect x="229.8" y="307.3" width="3.5" height="3.5" rx="1.3" fill="#62d99b" opacity="0.39" />
  <rect x="250.8" y="309.7" width="4.0" height="4.0" rx="1.2" fill="#8dff6a" opacity="0.32" />
  <rect x="273.8" y="309.7" width="5.4" height="5.4" rx="1.5" fill="#8dff6a" opacity="0.34" />
  <rect x="294.1" y="308.5" width="3.4" height="3.4" rx="1.2" fill="#8dff6a" opacity="0.38" />
  <rect x="314.5" y="307.3" width="3.8" height="3.8" rx="1.2" fill="#8dff6a" opacity="0.26" />
  <rect x="352.4" y="307.0" width="4.7" height="4.7" rx="1.9" fill="#62d99b" opacity="0.24" />
  <rect x="374.5" y="308.3" width="2.9" height="2.9" rx="1.1" fill="#8dff6a" opacity="0.49" />
  <rect x="392.7" y="309.1" width="3.4" height="3.4" rx="1.2" fill="#8dff6a" opacity="0.51" />
  <rect x="478.0" y="307.0" width="5.8" height="5.8" rx="1.6" fill="#8dff6a" opacity="0.43" />
  <rect x="6.7" y="328.4" width="2.8" height="2.8" rx="1.2" fill="#8dff6a" opacity="0.17" />
  <rect x="48.7" y="327.2" width="3.3" height="3.3" rx="1.4" fill="#8dff6a" opacity="0.28" />
  <rect x="67.5" y="328.1" width="6.4" height="6.4" rx="1.9" fill="#8dff6a" opacity="0.20" />
  <rect x="127.6" y="329.6" width="3.0" height="3.0" rx="1.2" fill="#8dff6a" opacity="0.36" />
  <rect x="148.0" y="330.0" width="6.3" height="6.3" rx="1.9" fill="#8dff6a" opacity="0.28" />
  <rect x="170.1" y="328.1" width="3.6" height="3.6" rx="1.0" fill="#8dff6a" opacity="0.27" />
  <rect x="191.0" y="327.1" width="4.5" height="4.5" rx="1.7" fill="#8dff6a" opacity="0.37" />
  <rect x="232.8" y="327.7" width="3.0" height="3.0" rx="0.9" fill="#8dff6a" opacity="0.40" />
  <rect x="252.1" y="328.6" width="4.6" height="4.6" rx="1.6" fill="#8dff6a" opacity="0.24" />
  <rect x="270.6" y="328.1" width="3.7" height="3.7" rx="1.0" fill="#8dff6a" opacity="0.45" />
  <rect x="290.7" y="328.8" width="5.3" height="5.3" rx="2.2" fill="#62d99b" opacity="0.42" />
  <rect x="313.5" y="327.9" width="5.7" height="5.7" rx="2.6" fill="#8dff6a" opacity="0.44" />
  <rect x="373.0" y="330.4" width="5.7" height="5.7" rx="2.1" fill="#62d99b" opacity="0.23" />
  <rect x="394.7" y="330.5" width="3.1" height="3.1" rx="1.1" fill="#8dff6a" opacity="0.28" />
  <rect x="415.0" y="327.4" width="3.3" height="3.3" rx="1.4" fill="#8dff6a" opacity="0.40" />
  <rect x="433.9" y="328.5" width="6.4" height="6.4" rx="2.8" fill="#62d99b" opacity="0.39" />
  <rect x="453.7" y="328.8" width="4.8" height="4.8" rx="1.5" fill="#8dff6a" opacity="0.37" />
  <rect x="478.3" y="329.8" width="3.6" height="3.6" rx="1.1" fill="#8dff6a" opacity="0.39" />
  <rect x="27.1" y="349.5" width="5.4" height="5.4" rx="1.8" fill="#8dff6a" opacity="0.31" />
  <rect x="46.7" y="350.9" width="3.8" height="3.8" rx="1.3" fill="#8dff6a" opacity="0.21" />
  <rect x="67.6" y="350.4" width="6.3" height="6.3" rx="2.0" fill="#62d99b" opacity="0.23" />
  <rect x="149.3" y="350.5" width="4.1" height="4.1" rx="1.3" fill="#62d99b" opacity="0.33" />
  <rect x="189.3" y="347.8" width="6.0" height="6.0" rx="1.8" fill="#62d99b" opacity="0.41" />
  <rect x="231.1" y="349.2" width="6.5" height="6.5" rx="2.8" fill="#8dff6a" opacity="0.42" />
  <rect x="273.8" y="349.6" width="4.5" height="4.5" rx="1.9" fill="#8dff6a" opacity="0.46" />
  <rect x="312.7" y="350.4" width="3.6" height="3.6" rx="1.6" fill="#8dff6a" opacity="0.28" />
  <rect x="416.8" y="351.4" width="6.1" height="6.1" rx="1.9" fill="#8dff6a" opacity="0.35" />
  <rect x="434.8" y="348.9" width="6.2" height="6.2" rx="2.6" fill="#8dff6a" opacity="0.24" />
  <rect x="457.6" y="349.5" width="5.2" height="5.2" rx="1.5" fill="#8dff6a" opacity="0.22" />
  <rect x="476.9" y="349.9" width="6.6" height="6.6" rx="2.4" fill="#8dff6a" opacity="0.26" />
  <rect x="495.0" y="349.9" width="6.3" height="6.3" rx="2.2" fill="#8dff6a" opacity="0.31" />
  <rect x="27.2" y="370.1" width="2.8" height="2.8" rx="1.2" fill="#8dff6a" opacity="0.32" />
  <rect x="47.3" y="369.3" width="4.6" height="4.6" rx="1.9" fill="#62d99b" opacity="0.28" />
  <rect x="69.1" y="370.5" width="4.1" height="4.1" rx="1.4" fill="#8dff6a" opacity="0.17" />
  <rect x="191.3" y="370.4" width="5.5" height="5.5" rx="1.8" fill="#62d99b" opacity="0.20" />
  <rect x="209.0" y="369.6" width="5.2" height="5.2" rx="2.3" fill="#8dff6a" opacity="0.37" />
  <rect x="271.6" y="371.4" width="3.7" height="3.7" rx="1.4" fill="#8dff6a" opacity="0.45" />
  <rect x="294.4" y="367.9" width="6.4" height="6.4" rx="2.4" fill="#8dff6a" opacity="0.34" />
  <rect x="313.5" y="368.6" width="4.4" height="4.4" rx="1.3" fill="#8dff6a" opacity="0.32" />
  <rect x="332.2" y="368.8" width="5.3" height="5.3" rx="1.6" fill="#8dff6a" opacity="0.26" />
  <rect x="355.4" y="369.3" width="5.9" height="5.9" rx="1.7" fill="#8dff6a" opacity="0.24" />
  <rect x="375.3" y="371.1" width="4.8" height="4.8" rx="1.6" fill="#8dff6a" opacity="0.22" />
  <rect x="414.6" y="370.5" width="3.5" height="3.5" rx="1.3" fill="#8dff6a" opacity="0.35" />
  <rect x="457.4" y="371.2" width="3.8" height="3.8" rx="1.4" fill="#8dff6a" opacity="0.39" />
  <rect x="8.9" y="389.1" width="4.8" height="4.8" rx="1.5" fill="#62d99b" opacity="0.18" />
  <rect x="28.3" y="389.0" width="4.4" height="4.4" rx="1.9" fill="#62d99b" opacity="0.23" />
  <rect x="48.9" y="390.8" width="3.0" height="3.0" rx="1.3" fill="#8dff6a" opacity="0.21" />
  <rect x="69.2" y="389.6" width="5.6" height="5.6" rx="2.3" fill="#8dff6a" opacity="0.18" />
  <rect x="87.2" y="388.3" width="3.6" height="3.6" rx="1.3" fill="#62d99b" opacity="0.18" />
  <rect x="106.9" y="389.3" width="5.9" height="5.9" rx="2.0" fill="#8dff6a" opacity="0.18" />
  <rect x="211.9" y="387.8" width="6.1" height="6.1" rx="2.7" fill="#8dff6a" opacity="0.26" />
  <rect x="250.7" y="390.6" width="3.5" height="3.5" rx="1.4" fill="#8dff6a" opacity="0.41" />
  <rect x="352.2" y="389.0" width="6.4" height="6.4" rx="2.4" fill="#8dff6a" opacity="0.31" />
  <rect x="437.2" y="389.8" width="3.7" height="3.7" rx="1.2" fill="#8dff6a" opacity="0.45" />
  <rect x="4.9" y="409.6" width="5.7" height="5.7" rx="2.5" fill="#8dff6a" opacity="0.19" />
  <rect x="28.4" y="408.4" width="4.0" height="4.0" rx="1.8" fill="#62d99b" opacity="0.23" />
  <rect x="110.1" y="409.9" width="4.9" height="4.9" rx="1.6" fill="#8dff6a" opacity="0.20" />
  <rect x="128.5" y="411.6" width="2.9" height="2.9" rx="1.2" fill="#62d99b" opacity="0.31" />
  <rect x="151.0" y="411.6" width="4.2" height="4.2" rx="1.3" fill="#8dff6a" opacity="0.30" />
  <rect x="192.5" y="409.9" width="6.1" height="6.1" rx="2.5" fill="#8dff6a" opacity="0.18" />
  <rect x="233.0" y="410.1" width="3.0" height="3.0" rx="0.9" fill="#62d99b" opacity="0.35" />
  <rect x="271.2" y="408.5" width="5.3" height="5.3" rx="2.0" fill="#8dff6a" opacity="0.36" />
  <rect x="312.8" y="409.7" width="3.7" height="3.7" rx="1.1" fill="#8dff6a" opacity="0.25" />
  <rect x="332.2" y="410.1" width="5.9" height="5.9" rx="1.9" fill="#62d99b" opacity="0.35" />
  <rect x="354.4" y="409.5" width="6.4" height="6.4" rx="2.4" fill="#62d99b" opacity="0.42" />
  <rect x="396.1" y="408.1" width="5.6" height="5.6" rx="1.6" fill="#8dff6a" opacity="0.21" />
  <rect x="413.1" y="408.4" width="4.8" height="4.8" rx="1.7" fill="#62d99b" opacity="0.43" />
  <rect x="455.9" y="408.8" width="5.4" height="5.4" rx="2.4" fill="#8dff6a" opacity="0.27" />
  <rect x="496.5" y="409.3" width="6.0" height="6.0" rx="2.3" fill="#8dff6a" opacity="0.41" />
  <rect x="7.7" y="428.5" width="6.5" height="6.5" rx="2.2" fill="#8dff6a" opacity="0.27" />
  <rect x="29.6" y="432.0" width="6.1" height="6.1" rx="1.8" fill="#8dff6a" opacity="0.29" />
  <rect x="46.8" y="428.8" width="5.9" height="5.9" rx="2.5" fill="#8dff6a" opacity="0.23" />
  <rect x="87.7" y="428.5" width="5.3" height="5.3" rx="2.4" fill="#8dff6a" opacity="0.30" />
  <rect x="107.1" y="430.9" width="3.6" height="3.6" rx="1.2" fill="#8dff6a" opacity="0.24" />
  <rect x="127.3" y="431.1" width="5.6" height="5.6" rx="1.7" fill="#8dff6a" opacity="0.35" />
  <rect x="191.3" y="431.6" width="5.6" height="5.6" rx="2.4" fill="#8dff6a" opacity="0.29" />
  <rect x="210.3" y="430.0" width="6.4" height="6.4" rx="2.1" fill="#8dff6a" opacity="0.39" />
  <rect x="231.8" y="431.6" width="4.8" height="4.8" rx="2.1" fill="#8dff6a" opacity="0.30" />
  <rect x="271.9" y="430.9" width="4.8" height="4.8" rx="1.4" fill="#8dff6a" opacity="0.40" />
  <rect x="333.2" y="428.9" width="3.3" height="3.3" rx="1.3" fill="#8dff6a" opacity="0.21" />
  <rect x="372.2" y="428.7" width="4.4" height="4.4" rx="1.5" fill="#8dff6a" opacity="0.34" />
  <rect x="393.4" y="430.3" width="3.3" height="3.3" rx="1.4" fill="#8dff6a" opacity="0.26" />
  <rect x="416.3" y="430.5" width="4.2" height="4.2" rx="1.3" fill="#8dff6a" opacity="0.37" />
  <rect x="435.2" y="431.0" width="5.6" height="5.6" rx="2.1" fill="#8dff6a" opacity="0.23" />
</svg>
