<svg width="160" height="160" viewBox="0 0 160 160" xmlns="http://www.w3.org/2000/svg">
  <circle cx="23.6" cy="117.8" r="0.30" fill="#000000" opacity="0.31" />
  <circle cx="87.2" cy="27.8" r="0.73" fill="#ffffff" opacity="0.25" />
  <circle cx="77.5" cy="30.8" r="0.68" fill="#ffffff" opacity="0.26" />
  <circle cx="123.6" cy="142.5" r="0.54" fill="#000000" opacity="0.19" />
  <circle cx="56.9" cy="81.9" r="0.68" fill="#ffffff" opacity="0.11" />
  <circle cx="105.8" cy="12.0" r="0.81" fill="#ffffff" opacity="0.10" />
  <circle cx="3.4" cy="94.7" r="0.73" fill="#000000" opacity="0.28" />
  <circle cx="140.6" cy="0.0" r="0.29" fill="#ffffff" opacity="0.20" />
  <circle cx="117.9" cy="32.5" r="0.57" fill="#ffffff" opacity="0.15" />
  <circle cx="8.0" cy="139.0" r="0.28" fill="#000000" opacity="0.20" />
  <circle cx="81.3" cy="138.1" r="0.75" fill="#ffffff" opacity="0.17" />
  <circle cx="67.8" cy="74.9" r="0.70" fill="#ffffff" opacity="0.25" />
  <circle cx="26.5" cy="124.1" r="0.31" fill="#000000" opacity="0.13" />
  <circle cx="136.4" cy="142.4" r="0.85" fill="#ffffff" opacity="0.22" />
  <circle cx="120.0" cy="133.9" r="0.47" fill="#ffffff" opacity="0.21" />
  <circle cx="13.1" cy="50.7" r="0.81" fill="#000000" opacity="0.25" />
  <circle cx="33.1" cy="111.1" r="0.87" fill="#ffffff" opacity="0.26" />
  <circle cx="57.0" cy="138.2" r="0.84" fill="#ffffff" opacity="0.23" />
  <circle cx="64.0" cy="140.5" r="0.54" fill="#000000" opacity="0.34" />
  <circle cx="53.0" cy="78.5" r="0.58" fill="#ffffff" opacity="0.22" />
  <circle cx="68.8" cy="158.2" r="0.66" fill="#ffffff" opacity="0.27" />
  <circle cx="49.0" cy="155.2" r="0.72" fill="#000000" opacity="0.17" />
  <circle cx="43.7" cy="151.5" r="0.47" fill="#ffffff" opacity="0.27" />
  <circle cx="122.0" cy="147.3" r="0.78" fill="#ffffff" opacity="0.28" />
  <circle cx="115.8" cy="50.1" r="0.32" fill="#000000" opacity="0.25" />
  <circle cx="34.9" cy="144.7" r="0.47" fill="#ffffff" opacity="0.19" />
  <circle cx="105.3" cy="105.4" r="0.44" fill="#ffffff" opacity="0.19" />
  <circle cx="63.0" cy="93.4" r="0.38" fill="#000000" opacity="0.23" />
  <circle cx="96.7" cy="1.8" r="0.76" fill="#ffffff" opacity="0.26" />
  <circle cx="110.5" cy="150.9" r="0.67" fill="#ffffff" opacity="0.13" />
  <circle cx="100.7" cy="56.1" r="0.55" fill="#000000" opacity="0.29" />
  <circle cx="157.3" cy="91.1" r="0.83" fill="#ffffff" opacity="0.15" />
  <circle cx="85.2" cy="28.5" r="0.59" fill="#ffffff" opacity="0.28" />
  <circle cx="115.0" cy="0.4" r="0.62" fill="#000000" opacity="0.28" />
  <circle cx="57.5" cy="22.5" r="0.68" fill="#ffffff" opacity="0.27" />
  <circle cx="54.2" cy="22.2" r="0.90" fill="#ffffff" opacity="0.15" />
  <circle cx="35.5" cy="115.4" r="0.33" fill="#000000" opacity="0.35" />
  <circle cx="0.6" cy="112.7" r="0.58" fill="#ffffff" opacity="0.19" />
  <circle cx="69.4" cy="158.6" r="0.39" fill="#ffffff" opacity="0.22" />
  <circle cx="101.6" cy="126.0" r="0.34" fill="#000000" opacity="0.17" />
  <circle cx="152.9" cy="67.9" r="0.41" fill="#ffffff" opacity="0.14" />
  <circle cx="42.9" cy="69.7" r="0.54" fill="#ffffff" opacity="0.13" />
  <circle cx="25.5" cy="123.8" r="0.67" fill="#000000" opacity="0.17" />
  <circle cx="115.4" cy="49.8" r="0.39" fill="#ffffff" opacity="0.16" />
  <circle cx="143.3" cy="1.7" r="0.49" fill="#ffffff" opacity="0.15" />
  <circle cx="91.0" cy="66.2" r="0.62" fill="#000000" opacity="0.35" />
  <circle cx="140.9" cy="52.5" r="0.71" fill="#ffffff" opacity="0.28" />
  <circle cx="70.0" cy="138.2" r="0.52" fill="#ffffff" opacity="0.20" />
  <circle cx="63.2" cy="32.5" r="0.51" fill="#000000" opacity="0.35" />
  <circle cx="97.0" cy="119.5" r="0.39" fill="#ffffff" opacity="0.21" />
  <circle cx="46.5" cy="84.2" r="0.88" fill="#ffffff" opacity="0.30" />
  <circle cx="147.9" cy="3.7" r="0.83" fill="#000000" opacity="0.17" />
  <circle cx="50.2" cy="126.2" r="0.62" fill="#ffffff" opacity="0.31" />
  <circle cx="6.4" cy="79.6" r="0.61" fill="#ffffff" opacity="0.26" />
  <circle cx="118.8" cy="53.7" r="0.79" fill="#000000" opacity="0.13" />
  <circle cx="150.1" cy="136.4" r="0.69" fill="#ffffff" opacity="0.11" />
  <circle cx="52.6" cy="108.8" r="0.45" fill="#ffffff" opacity="0.12" />
  <circle cx="127.9" cy="119.2" r="0.61" fill="#000000" opacity="0.19" />
  <circle cx="90.2" cy="140.8" r="0.36" fill="#ffffff" opacity="0.18" />
  <circle cx="25.7" cy="154.0" r="0.45" fill="#ffffff" opacity="0.13" />
  <circle cx="39.4" cy="156.5" r="0.84" fill="#000000" opacity="0.14" />
  <circle cx="63.6" cy="103.5" r="0.67" fill="#ffffff" opacity="0.18" />
  <circle cx="59.0" cy="80.6" r="0.36" fill="#ffffff" opacity="0.12" />
  <circle cx="82.1" cy="92.0" r="0.75" fill="#000000" opacity="0.27" />
  <circle cx="50.4" cy="5.8" r="0.60" fill="#ffffff" opacity="0.13" />
  <circle cx="38.8" cy="80.6" r="0.67" fill="#ffffff" opacity="0.30" />
  <circle cx="59.1" cy="133.4" r="0.43" fill="#000000" opacity="0.15" />
  <circle cx="75.0" cy="93.3" r="0.52" fill="#ffffff" opacity="0.21" />
  <circle cx="86.2" cy="83.2" r="0.78" fill="#ffffff" opacity="0.18" />
  <circle cx="152.2" cy="131.1" r="0.57" fill="#000000" opacity="0.25" />
  <circle cx="110.2" cy="134.4" r="0.83" fill="#ffffff" opacity="0.26" />
  <circle cx="58.5" cy="98.6" r="0.59" fill="#ffffff" opacity="0.11" />
  <circle cx="158.2" cy="75.3" r="0.80" fill="#000000" opacity="0.21" />
  <circle cx="105.5" cy="58.3" r="0.32" fill="#ffffff" opacity="0.27" />
  <circle cx="107.8" cy="144.1" r="0.42" fill="#ffffff" opacity="0.30" />
  <circle cx="114.8" cy="16.4" r="0.45" fill="#000000" opacity="0.18" />
  <circle cx="18.5" cy="58.9" r="0.82" fill="#ffffff" opacity="0.11" />
  <circle cx="54.1" cy="38.1" r="0.35" fill="#ffffff" opacity="0.27" />
  <circle cx="33.3" cy="138.3" r="0.31" fill="#000000" opacity="0.13" />
  <circle cx="84.4" cy="52.6" r="0.67" fill="#ffffff" opacity="0.24" />
  <circle cx="10.1" cy="31.2" r="0.40" fill="#ffffff" opacity="0.25" />
  <circle cx="16.2" cy="149.0" r="0.84" fill="#000000" opacity="0.36" />
  <circle cx="3.7" cy="17.7" r="0.65" fill="#ffffff" opacity="0.22" />
  <circle cx="96.2" cy="81.0" r="0.86" fill="#ffffff" opacity="0.23" />
  <circle cx="156.7" cy="79.1" r="0.84" fill="#000000" opacity="0.13" />
  <circle cx="83.7" cy="62.4" r="0.36" fill="#ffffff" opacity="0.21" />
  <circle cx="1.8" cy="98.3" r="0.47" fill="#ffffff" opacity="0.14" />
  <circle cx="137.4" cy="132.8" r="0.82" fill="#000000" opacity="0.13" />
  <circle cx="52.9" cy="70.1" r="0.74" fill="#ffffff" opacity="0.22" />
  <circle cx="151.6" cy="12.2" r="0.70" fill="#ffffff" opacity="0.27" />
  <circle cx="86.5" cy="1.3" r="0.70" fill="#000000" opacity="0.12" />
  <circle cx="103.3" cy="87.0" r="0.45" fill="#ffffff" opacity="0.13" />
  <circle cx="33.8" cy="141.5" r="0.84" fill="#ffffff" opacity="0.10" />
  <circle cx="128.2" cy="4.9" r="0.58" fill="#000000" opacity="0.12" />
</svg>
